<svg width="103" height="32" viewBox="0 0 103 32" fill="none" xmlns="http://www.w3.org/2000/svg">
<path fill-rule="evenodd" clip-rule="evenodd" d="M53.8876 8.02198C53.8876 8.43244 53.7659 8.83369 53.5378 9.17497C53.3098 9.51626 52.9857 9.78226 52.6064 9.93934C52.2272 10.0964 51.8099 10.1375 51.4074 10.0574C51.0048 9.97736 50.635 9.7797 50.3448 9.48946C50.0545 9.19922 49.8569 8.82943 49.7768 8.42686C49.6967 8.02428 49.7378 7.607 49.8949 7.22778C50.052 6.84857 50.318 6.52444 50.6592 6.2964C51.0005 6.06836 51.4018 5.94665 51.8122 5.94665C52.085 5.9458 52.3553 5.9989 52.6074 6.1029C52.8596 6.20689 53.0887 6.35973 53.2816 6.55261C53.4745 6.74549 53.6273 6.97461 53.7313 7.22678C53.8353 7.47896 53.8884 7.74921 53.8876 8.02198ZM45.3259 12.1928V12.7061C44.9342 12.2824 44.4553 11.9486 43.9221 11.7278C43.389 11.5071 42.8143 11.4046 42.2377 11.4274C41.4114 11.4185 40.5919 11.5771 39.8287 11.8937C39.0655 12.2103 38.3743 12.6783 37.797 13.2694C37.2196 13.8606 36.7681 14.5626 36.4696 15.3331C36.1711 16.1036 36.0318 16.9266 36.0602 17.7524C36.031 18.5782 36.1694 19.4013 36.4671 20.1722C36.7648 20.943 37.2156 21.6455 37.7923 22.2372C38.3691 22.8289 39.0598 23.2977 39.8227 23.615C40.5856 23.9324 41.405 24.0919 42.2312 24.0838C42.8112 24.1105 43.3898 24.0066 43.9243 23.7799C44.4588 23.5532 44.9356 23.2094 45.3195 22.7739V23.3175C45.3186 23.3761 45.3295 23.4343 45.3516 23.4886C45.3736 23.543 45.4063 23.5923 45.4478 23.6338C45.4892 23.6752 45.5386 23.7079 45.5929 23.73C45.6472 23.752 45.7055 23.7629 45.7641 23.7621H48.3527V11.7271H45.7861C45.6692 11.7304 45.558 11.7783 45.4753 11.8609C45.3926 11.9436 45.3447 12.0548 45.3415 12.1717L45.3259 12.1928ZM45.3259 19.8891C45.0295 20.2974 44.6401 20.6292 44.1899 20.857C43.7397 21.0848 43.2418 21.2021 42.7372 21.1991C40.6931 21.1991 39.1302 19.9203 39.1302 17.7524C39.1302 15.5845 40.6931 14.3057 42.7372 14.3057C43.2405 14.3095 43.7361 14.4298 44.1852 14.657C44.6343 14.8843 45.0247 15.2124 45.3259 15.6156V19.8965V19.8891ZM50.2759 11.7473H53.3651V23.7556H50.2759V11.7271V11.7473ZM96.079 11.4265C95.5024 11.4036 94.9277 11.5061 94.3945 11.7269C93.8614 11.9477 93.3824 12.2815 92.9907 12.7052V5.9659H89.9016V23.7538H92.4893C92.6062 23.7506 92.7174 23.7027 92.8001 23.62C92.8828 23.5373 92.9307 23.4261 92.9339 23.3092V22.7656C93.3204 23.1962 93.7968 23.5367 94.3293 23.763C94.8618 23.9893 95.4375 24.096 96.0157 24.0756C96.8413 24.0819 97.6596 23.9215 98.4216 23.604C99.1837 23.2865 99.8738 22.8184 100.451 22.2278C101.027 21.6372 101.479 20.9362 101.779 20.1669C102.078 19.3976 102.219 18.5757 102.193 17.7506C102.22 16.9252 102.079 16.103 101.78 15.3333C101.481 14.5637 101.029 13.8624 100.452 13.2716C99.8754 12.6809 99.185 12.2128 98.4225 11.8956C97.6601 11.5783 96.8415 11.4185 96.0157 11.4256L96.079 11.4265ZM95.5574 21.1688C95.0522 21.176 94.5527 21.0605 94.1019 20.8324C93.6511 20.6042 93.2622 20.2702 92.9688 19.8589V15.5771C93.2799 15.1847 93.6725 14.8644 94.1194 14.6382C94.5663 14.4121 95.0569 14.2855 95.5574 14.2672C97.6016 14.2672 99.1645 15.546 99.1645 17.7139C99.1645 19.8818 97.6016 21.1606 95.5574 21.1606V21.1688ZM88.3359 16.635V23.7877H85.2467V16.9925C85.2467 15.0097 84.6289 14.2131 82.8817 14.2131C82.411 14.2295 81.9487 14.3428 81.5237 14.5457C81.0986 14.7487 80.72 15.0371 80.4113 15.3929V23.7566H77.3222V11.7271H79.7495C79.8664 11.7304 79.9776 11.7783 80.0603 11.8609C80.143 11.9436 80.1908 12.0548 80.1941 12.1717V12.6851C80.6204 12.2606 81.1292 11.9282 81.689 11.7082C82.2489 11.4883 82.848 11.3855 83.4492 11.4063C84.6708 11.3611 85.8658 11.7704 86.8032 12.5549C87.8904 13.4505 88.3038 14.5991 88.3038 16.613L88.3359 16.635ZM69.9109 11.4283C69.3343 11.4055 68.7596 11.508 68.2264 11.7287C67.6933 11.9495 67.2143 12.2833 66.8227 12.7071V5.96773H63.7335V23.7538H66.3222C66.439 23.7506 66.5503 23.7027 66.6329 23.62C66.7156 23.5373 66.7635 23.4261 66.7667 23.3092V22.7656C67.154 23.1971 67.6314 23.538 68.165 23.7644C68.6987 23.9908 69.2757 24.097 69.855 24.0756C70.6805 24.0819 71.4988 23.9215 72.2609 23.604C73.0229 23.2865 73.713 22.8184 74.2899 22.2278C74.8667 21.6372 75.3183 20.9362 75.6178 20.1669C75.9172 19.3976 76.0582 18.5757 76.0324 17.7506C76.0644 16.9239 75.9276 16.0993 75.6304 15.3272C75.3331 14.5551 74.8817 13.8517 74.3037 13.2598C73.7256 12.668 73.033 12.2001 72.2682 11.8847C71.5033 11.5693 70.6822 11.4131 69.855 11.4256L69.9109 11.4283ZM69.3957 21.1688C68.8905 21.176 68.3911 21.0605 67.9402 20.8324C67.4894 20.6042 67.1006 20.2702 66.8071 19.8589V15.5771C67.1183 15.1847 67.5108 14.8644 67.9577 14.6382C68.4046 14.4121 68.8952 14.2855 69.3957 14.2672C71.4399 14.2672 73.0028 15.546 73.0028 17.7139C73.0028 19.8818 71.4399 21.1606 69.3957 21.1606V21.1688ZM61.0724 11.4246C61.547 11.4096 62.0213 11.4636 62.4804 11.5851V14.4267C62.4804 14.4267 59.9137 13.5806 58.3297 15.3837V23.785H55.2406V11.7271H57.8292C57.9461 11.7304 58.0573 11.7783 58.14 11.8609C58.2227 11.9436 58.2706 12.0548 58.2738 12.1717V12.6851C59.0062 11.9241 59.9988 11.4675 61.0532 11.4063L61.0724 11.4246ZM29.2274 22.6676L28.7452 21.519L28.0101 19.8873L27.9789 19.8561C25.7449 14.9877 23.3926 10.1744 20.9242 5.42048L20.8252 5.23715L20.0644 3.70631C19.7498 3.07955 19.3644 2.49088 18.9158 1.95181C18.4277 1.33671 17.8056 0.841173 17.097 0.502964C16.3883 0.164756 15.6118 -0.00719064 14.8266 0.00023039C14.0467 0.00280898 13.2768 0.175484 12.5705 0.506215C11.8643 0.836945 11.2387 1.31777 10.7373 1.91515C10.2995 2.46212 9.91493 3.04961 9.58874 3.66965L8.72432 5.36181C6.25391 10.156 3.86874 15.0051 1.66416 19.7975L1.63299 19.8589C1.44966 20.3841 1.18841 20.9222 0.928989 21.4961C0.768267 21.8462 0.607545 22.2291 0.446823 22.6446C0.039298 23.7449 -0.0922644 24.9284 0.0636557 26.0913C0.235542 27.2592 0.708699 28.3621 1.43652 29.2915C2.16433 30.2209 3.1217 30.9447 4.21432 31.3915C5.03359 31.7359 5.9143 31.9102 6.80299 31.9039C7.07985 31.8992 7.35622 31.8787 7.63074 31.8425C8.75762 31.6988 9.84389 31.329 10.8244 30.7553C12.3137 29.8671 13.6505 28.7451 14.7835 27.4324C15.9236 28.7379 17.2591 29.8588 18.7426 30.7553C19.723 31.3292 20.8093 31.6989 21.9362 31.8425C22.2108 31.8787 22.4871 31.8992 22.764 31.9039C23.653 31.9132 24.5343 31.7387 25.3527 31.3915C26.4453 30.9447 27.4026 30.2209 28.1305 29.2915C28.8583 28.3621 29.3314 27.2592 29.5033 26.0913C29.7386 24.9487 29.6377 23.7623 29.2127 22.6758L29.2274 22.6676ZM14.8284 24.3295C13.1051 22.1551 11.9867 20.1165 11.6036 18.3867C11.4471 17.7502 11.4135 17.0897 11.5046 16.4406C11.5678 15.9599 11.7433 15.5008 12.017 15.1005C12.3371 14.6564 12.7599 14.2964 13.2493 14.0512C13.7387 13.806 14.2802 13.683 14.8275 13.6925C15.376 13.6714 15.9211 13.7888 16.4123 14.0339C16.9035 14.279 17.325 14.644 17.638 15.095C17.9116 15.4953 18.0872 15.9544 18.1504 16.4351C18.242 17.0842 18.2084 17.7448 18.0514 18.3812C17.6682 20.0734 16.5508 22.0873 14.8266 24.324L14.8284 24.3295ZM27.5719 25.8301C27.4518 26.6477 27.1201 27.4198 26.6098 28.0699C26.0995 28.7199 25.4282 29.2254 24.6624 29.5361C23.8987 29.8592 23.0647 29.9804 22.2406 29.8881C21.3831 29.7821 20.5568 29.5003 19.8132 29.0604C18.4426 28.2329 17.2142 27.1901 16.175 25.9721C18.2815 23.3835 19.5602 21.0221 20.0415 18.912C20.2493 18.0217 20.3035 17.1026 20.2019 16.1941C20.0833 15.4129 19.7876 14.6691 19.3375 14.0197C18.8313 13.2974 18.1554 12.7106 17.3691 12.3109C16.5828 11.9113 15.7103 11.7112 14.8284 11.7281C13.9511 11.7169 13.0839 11.917 12.3002 12.3116C11.5165 12.7061 10.8393 13.2835 10.3257 13.995C9.87562 14.6444 9.57995 15.3881 9.46132 16.1693C9.32631 17.0766 9.38093 18.0021 9.62174 18.8872C10.1039 20.9937 11.4129 23.3899 13.4882 25.9786C12.4564 27.2038 11.2266 28.2477 9.84999 29.0668C9.10642 29.5162 8.27771 29.8065 7.41624 29.9193C6.59308 30.0107 5.76005 29.9006 4.98891 29.5985C4.22313 29.2877 3.55183 28.7823 3.0415 28.1322C2.53117 27.4822 2.19952 26.7101 2.07941 25.8924C1.97843 25.0575 2.07805 24.2106 2.36999 23.422C2.46899 23.1011 2.62299 22.8041 2.78249 22.4026C3.00524 21.8893 3.26466 21.3466 3.51766 20.8031L3.54882 20.7416C5.75432 15.975 8.11382 11.1304 10.5797 6.39856L10.6713 6.1694L11.4377 4.69906C11.6863 4.19223 11.9953 3.71731 12.358 3.28465C12.6729 2.91466 13.0644 2.6175 13.5054 2.41371C13.9464 2.20992 14.4264 2.10438 14.9123 2.10438C15.3981 2.10438 15.8781 2.20992 16.3192 2.41371C16.7602 2.6175 17.1517 2.91466 17.4666 3.28465C17.811 3.71625 18.1033 4.18701 18.3374 4.68715L19.1037 6.15748L19.1954 6.34081C21.6227 11.1038 23.9951 15.9521 26.1942 20.7141V20.7453C26.4472 21.2586 26.6763 21.8325 26.9293 22.3449C27.0897 22.7281 27.2502 23.0489 27.3418 23.3642C27.607 24.1592 27.6833 25.0051 27.5646 25.8346L27.5719 25.8301Z" fill="#6B7280"/>
</svg>
