<svg width="128" height="42" viewBox="0 0 128 42" fill="none" xmlns="http://www.w3.org/2000/svg">
<path d="M16.4352 32.3951C21.255 32.3951 24.8869 30.8181 27.73 27.8551C30.6568 24.9251 31.5654 20.823 31.5654 17.5045C31.5654 16.4741 31.4864 15.5292 31.3284 14.7358H16.4352V19.1605H27.0222C26.7062 21.6494 25.8733 23.4667 24.6143 24.7309C23.0709 26.2683 20.6637 27.9704 16.4352 27.9704C9.9177 27.9704 4.82041 22.716 4.82041 16.1975C4.82041 9.67901 9.9177 4.4214 16.4352 4.4214C19.9486 4.4214 22.5208 5.80741 24.4138 7.58519L27.5358 4.4642C24.8869 1.9391 21.3735 0 16.4352 0C7.50518 0 0 7.26584 0 16.1975C0 25.1259 7.50518 32.3951 16.4352 32.3951ZM43.6181 32.3951C49.3827 32.3951 54.084 27.9704 54.084 21.9621C54.084 15.921 49.3827 11.5358 43.6181 11.5358C37.8436 11.5358 33.1424 15.921 33.1424 21.9621C33.1424 27.9704 37.8436 32.3951 43.6181 32.3951ZM43.6181 28.2864C40.4543 28.2864 37.7251 25.679 37.7251 21.9621C37.7251 18.2123 40.4543 15.6477 43.6181 15.6477C46.7753 15.6477 49.5012 18.2123 49.5012 21.9621C49.5012 25.679 46.7753 28.2864 43.6181 28.2864ZM66.4494 32.3951C72.2173 32.3951 76.9185 27.9704 76.9185 21.9621C76.9185 15.921 72.2173 11.5358 66.4494 11.5358C60.6782 11.5358 55.977 15.921 55.977 21.9621C55.977 27.9704 60.6782 32.3951 66.4494 32.3951ZM66.4494 28.2864C63.2889 28.2864 60.5597 25.679 60.5597 21.9621C60.5597 18.2123 63.2889 15.6477 66.4494 15.6477C69.6099 15.6477 72.3358 18.2123 72.3358 21.9621C72.3358 25.679 69.6099 28.2864 66.4494 28.2864ZM88.8889 41.758C94.2584 41.758 98.8082 38.6008 98.8082 30.8938V12.1679H94.4593V13.8667H94.3012C93.2708 12.642 91.2955 11.5358 88.8132 11.5358C83.5951 11.5358 78.8181 16.1185 78.8181 22.0049C78.8181 27.8551 83.5951 32.3951 88.8132 32.3951C91.2955 32.3951 93.2708 31.2889 94.3012 30.0247H94.4593V31.5259C94.4593 35.5193 92.3259 37.6494 88.8889 37.6494C86.0872 37.6494 84.3457 35.6379 83.6313 33.9325L79.6445 35.5951C80.7934 38.3638 83.8321 41.758 88.8889 41.758ZM89.2017 28.2864C86.0444 28.2864 83.3942 25.6428 83.3942 22.0049C83.3942 18.3309 86.0444 15.6477 89.2017 15.6477C92.3259 15.6477 94.7753 18.3309 94.7753 22.0049C94.7753 25.6428 92.3259 28.2864 89.2017 28.2864ZM106.548 1.10617H101.965V31.763H106.548V1.10617ZM119.111 32.3951C123.888 32.3951 126.657 29.4749 127.802 27.7728L124.244 25.4058C123.062 27.1374 121.442 28.2864 119.111 28.2864C116.78 28.2864 115.118 27.2198 114.054 25.1259L128 19.3547L127.526 18.1728C126.657 15.842 124.007 11.5358 118.598 11.5358C113.225 11.5358 108.76 15.7663 108.76 21.9621C108.76 27.8123 113.185 32.3951 119.111 32.3951ZM113.304 21.6494C113.185 17.623 116.425 15.5654 118.756 15.5654C120.573 15.5654 122.114 16.4741 122.63 17.7778L113.304 21.6494Z" fill="#6B7280"/>
</svg>
