<svg width="136" height="38" viewBox="0 0 136 38" fill="none" xmlns="http://www.w3.org/2000/svg">
<g clip-path="url(#clip0_1_2572)">
<path d="M52.8403 14.3358C51.1058 14.3358 50.2477 15.7007 49.854 16.5811C49.6341 17.0727 49.5726 17.4614 49.3942 17.4614C49.1428 17.4614 49.3228 17.1236 49.1171 16.3744C48.8465 15.3887 48.0307 14.3358 46.2974 14.3358C44.4752 14.3358 43.695 15.8754 43.325 16.7214C43.072 17.2998 43.0717 17.4614 42.8771 17.4614C42.5952 17.4614 42.8288 17.002 42.9556 16.4619C43.2055 15.3984 43.0155 14.5858 43.0155 14.5858H40.1268V25.4479H44.0697C44.0697 25.4479 44.0697 20.9084 44.0697 20.0435C44.0697 18.9776 44.5157 17.625 45.28 17.625C46.1631 17.625 46.3398 18.3031 46.3398 19.559C46.3398 20.6977 46.3398 25.4503 46.3398 25.4503H50.2986C50.2986 25.4503 50.2986 20.8832 50.2986 20.0435C50.2986 19.0947 50.6858 17.625 51.5146 17.625C52.4101 17.625 52.5686 18.5778 52.5686 19.559C52.5686 20.5403 52.5686 25.4479 52.5686 25.4479H56.4562C56.4562 25.4479 56.4562 21.144 56.4562 19.0603C56.4562 16.2256 55.4569 14.3358 52.8403 14.3358Z" fill="#6B7280"/>
<path d="M119.765 14.3358C118.031 14.3358 117.173 15.7007 116.779 16.5811C116.559 17.0727 116.498 17.4614 116.319 17.4614C116.068 17.4614 116.236 17.0322 116.042 16.3744C115.753 15.3938 115.034 14.3358 113.222 14.3358C111.4 14.3358 110.62 15.8754 110.25 16.7214C109.997 17.2998 109.997 17.4614 109.802 17.4614C109.52 17.4614 109.754 17.002 109.881 16.4619C110.13 15.3984 109.941 14.5858 109.941 14.5858H107.052V25.4479H110.995C110.995 25.4479 110.995 20.9084 110.995 20.0435C110.995 18.9776 111.441 17.625 112.205 17.625C113.088 17.625 113.265 18.3031 113.265 19.559C113.265 20.6977 113.265 25.4503 113.265 25.4503H117.223C117.223 25.4503 117.223 20.8832 117.223 20.0435C117.223 19.0947 117.611 17.625 118.44 17.625C119.335 17.625 119.494 18.5778 119.494 19.559C119.494 20.5403 119.494 25.4479 119.494 25.4479H123.381C123.381 25.4479 123.381 21.144 123.381 19.0603C123.381 16.2256 122.382 14.3358 119.765 14.3358Z" fill="#6B7280"/>
<path d="M62.2287 22.9092C61.2859 23.1269 60.7971 22.8365 60.7971 22.2116C60.7971 21.3555 61.6826 21.0126 62.9465 21.0126C63.5037 21.0126 64.0276 21.0608 64.0276 21.0608C64.0276 21.4273 63.2321 22.6777 62.2287 22.9092ZM63.1887 14.3381C60.1683 14.3381 58.0011 15.4486 58.0011 15.4486V18.7126C58.0011 18.7126 60.3945 17.3365 62.336 17.3365C63.8857 17.3365 64.0761 18.1723 64.0055 18.8661C64.0055 18.8661 63.5587 18.7477 62.1946 18.7477C58.9811 18.7477 57.3587 20.2083 57.3587 22.5503C57.3587 24.7718 59.182 25.7005 60.718 25.7005C62.9595 25.7005 63.9448 24.1942 64.2477 23.4795C64.4578 22.9838 64.496 22.6497 64.6848 22.6497C64.8999 22.6497 64.8275 22.8893 64.8171 23.3827C64.7989 24.2469 64.8395 24.9001 64.9765 25.4503H67.9484V20.1046C67.9484 16.7671 66.7675 14.3381 63.1887 14.3381Z" fill="#6B7280"/>
<path d="M74.4432 25.4503H78.3862V11.2975H74.4432V25.4503Z" fill="#6B7280"/>
<path d="M82.7262 20.0192C82.7262 19.0425 83.6335 18.1539 85.2993 18.1539C87.1143 18.1539 88.5741 19.0279 88.9016 19.2263V15.4486C88.9016 15.4486 87.7483 14.3381 84.9136 14.3381C81.9254 14.3381 79.437 16.0867 79.437 19.8502C79.437 23.6136 81.6953 25.7005 84.9056 25.7005C87.4131 25.7005 88.9079 24.3226 88.9079 24.3226V20.7344C88.435 20.9991 87.1173 21.9135 85.3174 21.9135C83.4115 21.9135 82.7262 21.0368 82.7262 20.0192Z" fill="#6B7280"/>
<path d="M96.8888 14.3382C94.6063 14.3382 93.7381 16.5012 93.5629 16.8768C93.3874 17.2523 93.3008 17.4684 93.1573 17.4638C92.9081 17.4556 93.0818 17.0027 93.1789 16.7094C93.3625 16.1554 93.7515 14.7016 93.7515 12.915C93.7515 11.7031 93.5876 11.2975 93.5876 11.2975H90.1838V25.4503H94.1268C94.1268 25.4503 94.1268 20.9262 94.1268 20.0461C94.1268 19.1656 94.4781 17.6274 95.4714 17.6274C96.2942 17.6274 96.5518 18.237 96.5518 19.4646C96.5518 20.692 96.5518 25.4503 96.5518 25.4503H100.495C100.495 25.4503 100.495 22.1399 100.495 19.7008C100.495 16.9126 100.033 14.3382 96.8888 14.3382Z" fill="#6B7280"/>
<path d="M101.776 14.6006V25.4502H105.719V14.6006C105.719 14.6006 105.057 14.9882 103.752 14.9882C102.447 14.9882 101.776 14.6006 101.776 14.6006Z" fill="#6B7280"/>
<path d="M103.736 11.1876C102.403 11.1876 101.322 11.8929 101.322 12.7629C101.322 13.6328 102.403 14.3381 103.736 14.3381C105.069 14.3381 106.15 13.6328 106.15 12.7629C106.15 11.8929 105.069 11.1876 103.736 11.1876Z" fill="#6B7280"/>
<path d="M69.2243 14.6006V25.4502H73.1672V14.6006C73.1672 14.6006 72.5045 14.9882 71.1997 14.9882C69.8952 14.9882 69.2243 14.6006 69.2243 14.6006Z" fill="#6B7280"/>
<path d="M71.184 11.1876C69.8511 11.1876 68.7705 11.8929 68.7705 12.7629C68.7705 13.6328 69.8511 14.3381 71.184 14.3381C72.5171 14.3381 73.5977 13.6328 73.5977 12.7629C73.5977 11.8929 72.5171 11.1876 71.184 11.1876Z" fill="#6B7280"/>
<path d="M130.133 23.1161C129.228 23.1161 128.563 21.9693 128.563 20.3714C128.563 18.8196 129.246 17.6273 130.102 17.6273C131.199 17.6273 131.667 18.6335 131.667 20.3714C131.667 22.1793 131.235 23.1161 130.133 23.1161ZM131.215 14.3358C129.188 14.3358 128.259 15.8556 127.855 16.7214C127.589 17.2935 127.602 17.4614 127.407 17.4614C127.126 17.4614 127.359 17.002 127.486 16.4619C127.736 15.3984 127.546 14.5858 127.546 14.5858H124.657V28.4478H128.6C128.6 28.4478 128.6 26.1795 128.6 24.0528C129.067 24.8443 129.931 25.6901 131.263 25.6901C134.115 25.6901 135.55 23.2777 135.55 20.0183C135.55 16.3241 133.832 14.3358 131.215 14.3358Z" fill="#6B7280"/>
<path d="M26.1971 17.6167C26.4622 17.5851 26.7162 17.5836 26.9497 17.6167C27.0848 17.3069 27.108 16.7727 26.9864 16.1911C26.8058 15.3265 26.5614 14.8034 26.0562 14.8848C25.5511 14.9662 25.5324 15.5926 25.713 16.4572C25.8146 16.9434 25.9955 17.3591 26.1971 17.6167Z" fill="#6B7280"/>
<path d="M21.8601 18.3008C22.2215 18.4594 22.4437 18.5646 22.5306 18.4726C22.5865 18.4154 22.5699 18.3061 22.4835 18.1651C22.3051 17.8738 21.9381 17.5786 21.5488 17.4126C20.7526 17.0699 19.8031 17.1839 19.0705 17.7102C18.8288 17.8875 18.5995 18.1329 18.6323 18.2819C18.643 18.3301 18.6792 18.3665 18.764 18.3783C18.9634 18.4011 19.6601 18.0488 20.4627 17.9997C21.0292 17.965 21.4986 18.1422 21.8601 18.3008Z" fill="#6B7280"/>
<path d="M21.133 18.7157C20.6622 18.79 20.4025 18.9452 20.2358 19.0895C20.0936 19.2138 20.0057 19.3513 20.0064 19.448C20.0067 19.4939 20.0267 19.5205 20.0424 19.5338C20.064 19.5527 20.0893 19.5632 20.1199 19.5632C20.2262 19.5632 20.4643 19.4675 20.4643 19.4675C21.1195 19.2331 21.5516 19.2615 21.9799 19.3103C22.2166 19.3369 22.3284 19.3516 22.3803 19.2704C22.3958 19.2472 22.4143 19.1967 22.367 19.1199C22.2566 18.9411 21.7813 18.6387 21.133 18.7157" fill="#6B7280"/>
<path d="M24.7326 20.2387C25.0522 20.3957 25.4041 20.334 25.5187 20.1009C25.6332 19.868 25.467 19.5516 25.1472 19.3944C24.8277 19.2375 24.4758 19.2991 24.3611 19.5322C24.2466 19.7653 24.4129 20.0815 24.7326 20.2387Z" fill="#6B7280"/>
<path d="M26.7875 18.443C26.5279 18.4385 26.3126 18.7237 26.3065 19.0798C26.3004 19.436 26.5061 19.7281 26.7657 19.7326C27.0254 19.737 27.2409 19.4518 27.2468 19.0958C27.2529 18.7396 27.0472 18.4473 26.7875 18.443Z" fill="#6B7280"/>
<path d="M9.3453 24.864C9.2807 24.7831 9.17458 24.8077 9.07181 24.8317C9.00003 24.8485 8.9187 24.8673 8.82955 24.8658C8.63856 24.862 8.47683 24.7805 8.38599 24.641C8.2677 24.4593 8.27454 24.1884 8.40517 23.8785C8.42274 23.8365 8.4435 23.7901 8.4661 23.7395C8.67429 23.2722 9.02291 22.4901 8.63155 21.7449C8.33698 21.184 7.85659 20.8347 7.27899 20.7614C6.72449 20.6911 6.15361 20.8967 5.78947 21.2984C5.21499 21.9322 5.12521 22.7947 5.23631 23.0994C5.27705 23.211 5.3407 23.2418 5.387 23.2482C5.48471 23.2612 5.62924 23.1902 5.71979 22.9466C5.72626 22.9291 5.73488 22.9019 5.74568 22.8674C5.78608 22.7387 5.86119 22.4988 5.98423 22.3066C6.13259 22.0749 6.36366 21.9153 6.63488 21.8572C6.9112 21.798 7.1936 21.8508 7.43 22.0056C7.83249 22.2688 7.98745 22.7619 7.81563 23.2324C7.72683 23.4758 7.58252 23.941 7.61439 24.3235C7.6787 25.0972 8.15462 25.408 8.58225 25.441C8.99801 25.4566 9.28857 25.2233 9.36208 25.0527C9.40547 24.9518 9.36885 24.8904 9.34531 24.864" fill="#6B7280"/>
<path d="M13.2977 10.6521C14.6537 9.08518 16.323 7.72293 17.8183 6.95802C17.8701 6.93145 17.9249 6.9877 17.8969 7.0384C17.7781 7.25342 17.5496 7.71389 17.4771 8.06312C17.4658 8.11755 17.525 8.15848 17.571 8.12718C18.5012 7.49307 20.1196 6.81358 21.5391 6.72623C21.6 6.72245 21.6295 6.80068 21.581 6.8379C21.3651 7.00354 21.129 7.23266 20.9565 7.46445C20.9272 7.50388 20.9549 7.56069 21.004 7.56099C22.0007 7.56809 23.4058 7.9169 24.3217 8.4306C24.3837 8.46528 24.3395 8.58527 24.2702 8.5694C22.8845 8.2519 20.6164 8.01092 18.2602 8.58559C16.1568 9.09869 14.5513 9.89074 13.3802 10.7426C13.3209 10.7857 13.2499 10.7075 13.2977 10.6521L13.2977 10.6521ZM20.0512 25.8337C20.0514 25.834 20.0515 25.8346 20.0516 25.8346C20.0519 25.835 20.0521 25.8358 20.0525 25.8363C20.0521 25.8354 20.0516 25.8346 20.0512 25.8337ZM25.6432 26.4938C25.6834 26.4769 25.7111 26.4311 25.7063 26.3856C25.7007 26.3295 25.6507 26.2887 25.5947 26.2945C25.5947 26.2945 22.7008 26.7228 19.9671 25.7221C20.2649 24.7543 21.0567 25.1037 22.2534 25.2003C24.4105 25.329 26.3437 25.0138 27.7726 24.6036C29.0107 24.2485 30.6367 23.5479 31.8998 22.5509C32.3258 23.4868 32.4762 24.5166 32.4762 24.5166C32.4762 24.5166 32.806 24.4577 33.0816 24.6272C33.342 24.7875 33.533 25.1206 33.4025 25.9819C33.1369 27.591 32.4529 28.897 31.3035 30.0985C30.6037 30.8516 29.7542 31.5065 28.7823 31.9827C28.2661 32.2538 27.7165 32.4884 27.1359 32.6779C22.8024 34.0933 18.3667 32.5373 16.9368 29.196C16.8228 28.9447 16.7263 28.6818 16.6502 28.4067C16.0408 26.2048 16.5581 23.5631 18.1751 21.9002C18.1753 21.9 18.175 21.8994 18.1751 21.8994C18.2748 21.7935 18.3765 21.6688 18.3765 21.5119C18.3765 21.3806 18.2932 21.2421 18.2208 21.1439C17.655 20.3234 15.6954 18.9251 16.0887 16.2192C16.3712 14.2751 18.0713 12.9061 19.6564 12.9872C19.7904 12.9942 19.9246 13.0023 20.0582 13.0102C20.7451 13.051 21.3444 13.1391 21.9098 13.1626C22.8562 13.2036 23.7073 13.066 24.7153 12.2262C25.0553 11.9428 25.3279 11.6972 25.7892 11.619C25.8377 11.6107 25.9583 11.5674 26.1994 11.5788C26.4454 11.5919 26.6798 11.6595 26.8902 11.7997C27.6984 12.3374 27.8129 13.6397 27.8549 14.5925C27.8787 15.1363 27.9446 16.4522 27.967 16.8299C28.0184 17.6935 28.2455 17.8153 28.7047 17.9666C28.9631 18.0517 29.2029 18.115 29.5563 18.2142C30.6259 18.5145 31.2602 18.8193 31.6598 19.2106C31.8983 19.4552 32.0092 19.7151 32.0435 19.9629C32.1695 20.8831 31.329 22.0198 29.104 23.0527C26.6716 24.1815 23.7208 24.4674 21.682 24.2404C21.5257 24.2231 20.9696 24.16 20.9677 24.1597C19.3369 23.9401 18.4066 26.0477 19.3854 27.4916C20.0162 28.4221 21.7344 29.0278 23.4534 29.0281C27.395 29.0285 30.4245 27.3454 31.5514 25.8918C31.5852 25.8483 31.5885 25.8436 31.6416 25.7632C31.6971 25.6797 31.6514 25.6336 31.5823 25.6809C30.6615 26.3109 26.5719 28.8121 22.1975 28.0596C22.1975 28.0596 21.666 27.9722 21.1808 27.7835C20.7952 27.6335 19.9882 27.2622 19.8902 26.4343C23.4204 27.526 25.6432 26.4939 25.6432 26.4939V26.4938ZM6.25309 18.1043C5.02536 18.343 3.94326 19.0388 3.2816 19.9999C2.88607 19.6701 2.14927 19.0316 2.01917 18.7827C0.962736 16.7769 3.17206 12.8768 4.71544 10.6743C8.52967 5.23126 14.5036 1.11129 17.269 1.85885C17.7187 1.98609 19.2076 3.71241 19.2076 3.71241C19.2076 3.71241 16.4433 5.24624 13.8797 7.38422C10.4255 10.0439 7.81622 13.9095 6.25309 18.1043ZM8.31614 27.309C8.13031 27.3407 7.94078 27.3534 7.74961 27.3487C5.90234 27.2992 3.90694 25.6361 3.70865 23.6639C3.4895 21.4839 4.60335 19.8062 6.57552 19.4084C6.81129 19.3609 7.09623 19.3335 7.40349 19.3495C8.50847 19.41 10.1368 20.2584 10.5088 22.6657C10.8383 24.7976 10.315 26.9681 8.31614 27.309V27.309ZM33.34 23.4488C33.3242 23.3929 33.2211 23.0161 33.0795 22.5621C32.9379 22.1078 32.7912 21.7882 32.7912 21.7882C33.3593 20.9376 33.3694 20.177 33.2939 19.746C33.2132 19.212 32.9909 18.7569 32.5428 18.2865C32.0946 17.8161 31.1782 17.3343 29.8901 16.9726C29.7428 16.9312 29.257 16.7979 29.2143 16.785C29.2109 16.7571 29.1787 15.1917 29.1495 14.5198C29.1281 14.034 29.0865 13.2756 28.8511 12.5286C28.5707 11.5175 28.082 10.6328 27.4723 10.0668C29.1553 8.32219 30.2059 6.40027 30.2034 4.75152C30.1985 1.5808 26.3046 0.621469 21.5058 2.60849C21.5008 2.61055 20.4964 3.03647 20.4891 3.04003C20.4845 3.03573 18.651 1.2366 18.6234 1.21258C13.1522 -3.55959 -3.95398 15.4543 1.5152 20.0723L2.71043 21.0849C2.4004 21.888 2.27857 22.8082 2.37809 23.7978C2.50582 25.0687 3.1614 26.287 4.22398 27.2282C5.23268 28.122 6.55889 28.6876 7.84588 28.6865C9.97417 33.5911 14.8371 36.5999 20.5388 36.7693C26.655 36.9509 31.7892 34.081 33.9405 28.9257C34.0812 28.5639 34.6784 26.9337 34.6784 25.4946C34.6784 24.0483 33.8607 23.4488 33.34 23.4488Z" fill="#6B7280"/>
</g>
<defs>
<clipPath id="clip0_1_2572">
<rect width="136" height="37.2277" fill="white"/>
</clipPath>
</defs>
</svg>
