<svg width="150" height="33" viewBox="0 0 150 33" fill="none" xmlns="http://www.w3.org/2000/svg">
<g clip-path="url(#clip0_1_2568)">
<path d="M149.977 15.2789V12.6398H146.7V8.53827L146.59 8.57343L143.514 9.51093H143.455V12.6164H138.599V10.882C138.599 10.0851 138.786 9.46405 139.138 9.05389C139.489 8.64374 140.005 8.43866 140.638 8.43866C141.107 8.43866 141.599 8.55585 142.068 8.76678L142.185 8.81366V6.04686L142.138 6.02343C141.693 5.86522 141.083 5.78319 140.333 5.78319C139.384 5.78319 138.517 5.99413 137.755 6.40897C136.993 6.80741 136.396 7.40507 135.986 8.15507C135.564 8.90507 135.353 9.77225 135.353 10.7215V12.6199H133.079V15.2566H135.364V26.366H138.634V15.2566H143.494V22.3113C143.494 25.2176 144.86 26.6941 147.572 26.6941C148.017 26.6941 148.486 26.6379 148.955 26.5418C149.441 26.4363 149.775 26.3308 149.962 26.2254L150.009 26.2019V23.5418L149.877 23.6308C149.701 23.748 149.479 23.85 149.221 23.9203C148.963 23.9906 148.74 24.0375 148.574 24.0375C147.941 24.0375 147.472 23.8734 147.184 23.5371C146.886 23.2031 146.739 22.6113 146.739 21.7793V15.2871H149.996L149.989 15.2707L149.977 15.2789ZM125.73 24.0445C124.543 24.0445 123.606 23.6496 122.941 22.8726C122.282 22.0933 121.945 20.9812 121.945 19.568C121.945 18.1101 122.282 16.9664 122.945 16.1742C123.606 15.3867 124.534 14.9859 125.706 14.9859C126.843 14.9859 127.733 15.368 128.389 16.1226C129.046 16.882 129.374 18.014 129.374 19.4883C129.374 20.9812 129.069 22.1285 128.46 22.8949C127.85 23.6566 126.936 24.0433 125.741 24.0433L125.73 24.0445ZM125.882 12.3094C123.62 12.3094 121.818 12.9726 120.533 14.2828C119.256 15.5953 118.602 17.407 118.602 19.6734C118.602 21.8297 119.235 23.5582 120.492 24.818C121.746 26.0836 123.454 26.7398 125.563 26.7398C127.757 26.7398 129.524 26.0601 130.803 24.7418C132.093 23.4152 132.732 21.6176 132.732 19.4062C132.732 17.2195 132.123 15.4734 130.916 14.2266C129.709 12.968 128.017 12.3328 125.877 12.3328L125.882 12.3094ZM113.314 12.3328C111.768 12.3328 110.497 12.7266 109.518 13.5047C108.543 14.2875 108.041 15.3094 108.041 16.5515C108.041 17.2008 108.151 17.7703 108.364 18.2625C108.575 18.7476 108.904 19.1766 109.342 19.5375C109.775 19.8891 110.443 20.2641 111.334 20.6484C112.084 20.9531 112.635 21.2109 112.991 21.4219C113.343 21.6176 113.591 21.8203 113.718 22.016C113.858 22.2035 113.929 22.473 113.929 22.7894C113.929 23.7199 113.239 24.1676 111.819 24.1676C111.289 24.1676 110.687 24.0574 110.028 23.8394C109.364 23.6238 108.748 23.3121 108.192 22.9113L108.052 22.8176V25.9582L108.098 25.9816C108.567 26.1926 109.145 26.3801 109.833 26.5207C110.518 26.673 111.145 26.7433 111.684 26.7433C113.36 26.7433 114.708 26.3449 115.692 25.5668C116.677 24.7793 117.18 23.7269 117.18 22.4449C117.18 21.5191 116.911 20.7223 116.378 20.0836C115.85 19.4437 114.936 18.8601 113.655 18.3445C112.644 17.9344 111.991 17.5945 111.71 17.3367C111.452 17.0836 111.332 16.7273 111.332 16.2773C111.332 15.8789 111.496 15.5578 111.83 15.3C112.165 15.0363 112.634 14.9051 113.22 14.9051C113.764 14.9051 114.321 14.9871 114.884 15.157C115.434 15.3305 115.921 15.5555 116.325 15.832L116.462 15.9258V12.9258L116.415 12.9023C116.034 12.7383 115.54 12.6012 114.939 12.4922C114.341 12.3785 113.798 12.3281 113.327 12.3281L113.314 12.3328ZM99.4992 24.0586C98.3156 24.0586 97.3781 23.6672 96.7219 22.8867C96.0539 22.1133 95.7199 21 95.7199 19.582C95.7199 18.1289 96.0551 16.9805 96.7207 16.1918C97.3769 15.4043 98.3074 15.0035 99.4746 15.0035C100.611 15.0035 101.514 15.3855 102.164 16.1402C102.811 16.9019 103.148 18.034 103.148 19.5082C103.148 20.9988 102.832 22.1449 102.223 22.9125C101.625 23.6742 100.711 24.0609 99.5039 24.0609L99.4992 24.0586ZM99.668 12.3305C97.3945 12.3305 95.5898 12.9914 94.3125 14.3016C93.0269 15.6141 92.3789 17.4246 92.3789 19.6922C92.3789 21.8484 93.0117 23.5758 94.2574 24.8367C95.5137 26.1023 97.2176 26.7586 99.3258 26.7586C101.529 26.7586 103.287 26.0789 104.576 24.7547C105.858 23.4258 106.509 21.6281 106.509 19.4168C106.509 17.2289 105.9 15.4828 104.705 14.2371C103.498 12.9773 101.803 12.3422 99.6656 12.3422L99.668 12.3305ZM87.4336 15.0469V12.6562H84.1992V26.4023H87.4336V19.3711C87.4336 18.1758 87.7031 17.1914 88.2387 16.4473C88.766 15.7066 89.4691 15.3457 90.3246 15.3457C90.6176 15.3457 90.9457 15.3926 91.3066 15.4863C91.6582 15.5801 91.9113 15.6738 92.0566 15.791L92.1973 15.8848V12.6269L92.1457 12.6035C91.841 12.4676 91.4191 12.4019 90.8801 12.4019C90.0715 12.4019 89.3449 12.6644 88.7215 13.1754C88.1707 13.6301 87.7758 14.2488 87.4734 15.0223H87.4148L87.4441 15.0457L87.4336 15.0469ZM78.3867 12.3281C76.8984 12.3281 75.5742 12.6387 74.4492 13.2656C73.3148 13.8984 72.4453 14.7891 71.8476 15.9375C71.2617 17.0742 70.957 18.4043 70.957 19.8867C70.957 21.1875 71.2523 22.3758 71.8242 23.4281C72.4031 24.4828 73.2187 25.3031 74.25 25.8773C75.2742 26.4433 76.4648 26.7328 77.782 26.7328C79.3195 26.7328 80.6297 26.4281 81.6844 25.8187L81.7312 25.7953V22.8281L81.5906 22.9254C81.1137 23.2769 80.5828 23.5523 80.0086 23.7515C79.4367 23.9508 78.9164 24.0515 78.4617 24.0515C77.189 24.0515 76.1719 23.6531 75.4312 22.8738C74.6812 22.0769 74.3062 20.9754 74.3062 19.5926C74.3062 18.1863 74.7047 17.0613 75.4734 16.241C76.2469 15.3973 77.2641 14.9754 78.5086 14.9754C79.5633 14.9754 80.6027 15.3387 81.5824 16.0418L81.723 16.1355V13.0183L81.6844 12.9949C81.3152 12.784 80.8137 12.6199 80.1844 12.4863C79.568 12.3574 78.9609 12.2941 78.382 12.2941L78.3867 12.3281ZM68.7375 12.6223H65.5078V26.3801H68.7422V12.6223H68.7375ZM67.1437 6.7746C66.6117 6.7746 66.1476 6.95507 65.7656 7.31366C65.3836 7.6746 65.189 8.12694 65.189 8.66132C65.189 9.18866 65.3848 9.63397 65.7633 9.98553C66.1383 10.3371 66.607 10.5105 67.1461 10.5105C67.6852 10.5105 68.1539 10.3348 68.5348 9.98319C68.9191 9.63163 69.1137 9.18632 69.1137 8.65897C69.1137 8.14335 68.9262 7.69803 68.5512 7.32303C68.1762 6.97147 67.7074 6.78397 67.1449 6.78397L67.1437 6.7746ZM59.0707 11.6238V26.3894H62.3754V7.21874H57.8051L52.0125 21.4664L46.3758 7.21639H41.625V26.4023H44.7305V11.6426H44.8359L50.7891 26.4058H53.1269L58.9863 11.6437H59.0976L59.0801 11.6367L59.0707 11.6238ZM16.8012 17.5887H32.0121V32.8125H16.7777L16.7988 17.5992L16.8012 17.5887ZM-1.22068e-05 17.598H15.2086V32.8125H-0.00469971L-1.22068e-05 17.5992V17.598ZM16.8023 0.796863H32.0133V16.0078H16.793L16.8023 0.792175V0.796863ZM-1.22068e-05 0.794519H15.2086V16.0078H-0.00469971L-1.22068e-05 0.792175V0.794519Z" fill="#6B7280"/>
</g>
<defs>
<clipPath id="clip0_1_2568">
<rect width="150" height="32.8125" fill="white"/>
</clipPath>
</defs>
</svg>
