<svg width="128" height="40" viewBox="0 0 128 40" fill="none" xmlns="http://www.w3.org/2000/svg">
<path d="M51.5489 18.1473C55.4435 19.0941 57.0313 20.5643 57.0313 23.2223C57.0313 26.3672 54.6285 28.3995 50.9096 28.3995C48.281 28.3995 45.8441 27.4657 43.8636 25.6974C43.8229 25.6611 43.798 25.6103 43.7943 25.5559C43.7906 25.5015 43.8082 25.4478 43.8436 25.4063L45.5936 23.3246C45.6115 23.3033 45.6334 23.2858 45.6581 23.2731C45.6828 23.2603 45.7098 23.2527 45.7375 23.2505C45.7652 23.2483 45.793 23.2516 45.8194 23.2603C45.8458 23.269 45.8702 23.2828 45.8912 23.3011C47.5936 24.7747 49.1155 25.4028 50.9808 25.4028C52.6609 25.4028 53.7047 24.6753 53.7047 23.5063C53.7047 22.4507 53.1884 21.8609 50.1293 21.1564C46.5363 20.2873 44.4563 19.1629 44.4563 15.9845C44.4563 13.0207 46.8674 10.9507 50.3181 10.9507C52.6644 10.9507 54.6738 11.6458 56.4573 13.0766C56.5432 13.1459 56.5608 13.2706 56.4967 13.3612L54.9355 15.5605C54.9191 15.5831 54.8985 15.6023 54.8747 15.6169C54.851 15.6315 54.8246 15.6412 54.7971 15.6456C54.7695 15.65 54.7414 15.6489 54.7143 15.6423C54.6872 15.6358 54.6616 15.624 54.6391 15.6075C53.1407 14.4902 51.7118 13.9481 50.2698 13.9481C48.7832 13.9481 47.7836 14.6625 47.7836 15.724C47.7836 16.8472 48.354 17.3823 51.5494 18.1456L51.5489 18.1473ZM65.4446 14.9954C63.8333 14.9954 62.5114 15.6305 61.4205 16.9301V15.4658C61.4205 15.4103 61.3985 15.357 61.3592 15.3178C61.3199 15.2785 61.2667 15.2565 61.2112 15.2565H58.3497C58.2942 15.2565 58.2409 15.2785 58.2017 15.3178C58.1624 15.357 58.1404 15.4103 58.1404 15.4658V31.7373C58.1404 31.852 58.2344 31.946 58.3497 31.946H61.2118C61.3276 31.946 61.4217 31.852 61.4217 31.7367V26.6C62.512 27.8232 63.8345 28.4218 65.4463 28.4218C68.4425 28.4218 71.4739 26.1167 71.4739 21.7086C71.4739 17.3005 68.4407 14.9954 65.4446 14.9954ZM68.1437 21.7092C68.1437 23.9532 66.7618 25.5198 64.7824 25.5198C62.8242 25.5198 61.3482 23.8821 61.3482 21.7092C61.3482 19.5363 62.8242 17.8986 64.7824 17.8986C66.7301 17.8986 68.1443 19.501 68.1443 21.7092H68.1437ZM79.2445 14.9954C75.3868 14.9954 72.3654 17.965 72.3654 21.758C72.3654 25.5086 75.3656 28.4471 79.1962 28.4471C83.0674 28.4471 86.0982 25.4869 86.0982 21.7092C86.0982 17.9445 83.0874 14.9948 79.2439 14.9948L79.2445 14.9954ZM79.2439 25.5427C77.1916 25.5427 75.645 23.8944 75.645 21.7086C75.645 19.514 77.1386 17.9215 79.1968 17.9215C81.2609 17.9215 82.8192 19.5698 82.8192 21.7568C82.8192 23.9503 81.315 25.5421 79.2439 25.5421V25.5427ZM94.3357 15.2565C94.4515 15.2565 94.545 15.3506 94.545 15.4658V17.9256C94.5451 17.9531 94.5398 17.9803 94.5293 18.0057C94.5189 18.0311 94.5035 18.0542 94.4841 18.0736C94.4647 18.0931 94.4417 18.1085 94.4163 18.119C94.3909 18.1296 94.3637 18.135 94.3363 18.135H91.1872V24.0514C91.1872 24.9864 91.5977 25.4028 92.5163 25.4028C93.1007 25.4059 93.6772 25.2666 94.1957 24.997C94.2278 24.9811 94.2634 24.9736 94.2991 24.9753C94.3349 24.977 94.3696 24.9878 94.4 25.0066C94.4305 25.0254 94.4556 25.0517 94.473 25.083C94.4905 25.1142 94.4997 25.1494 94.4998 25.1852V27.5268C94.4998 27.6015 94.4586 27.6721 94.3939 27.7091C93.5912 28.1637 92.7397 28.3754 91.7124 28.3754C89.1879 28.3754 87.9077 27.0717 87.9077 24.4989V18.1356H86.5316C86.5042 18.1355 86.4771 18.13 86.4518 18.1195C86.4265 18.1089 86.4035 18.0935 86.3842 18.074C86.3648 18.0546 86.3495 18.0315 86.3391 18.0062C86.3287 17.9808 86.3234 17.9537 86.3234 17.9262V15.4658C86.3234 15.3506 86.4164 15.2565 86.5316 15.2565H87.9077V12.0363C87.9077 11.921 88.0018 11.8269 88.1182 11.8269H90.9797C91.0955 11.8269 91.189 11.921 91.189 12.0363V15.2565H94.338H94.3357ZM110.198 15.2688C110.285 15.2688 110.363 15.3217 110.394 15.4041L113.737 24.1273L116.789 15.4088C116.804 15.3676 116.83 15.332 116.866 15.3067C116.901 15.2814 116.944 15.2678 116.988 15.2676H119.967C120.001 15.2676 120.035 15.2759 120.065 15.2919C120.095 15.3079 120.121 15.331 120.14 15.3593C120.159 15.3876 120.171 15.4201 120.175 15.4541C120.179 15.488 120.174 15.5223 120.161 15.554L115.196 28.3854C114.167 31.0334 112.998 32.0178 110.885 32.0178C109.755 32.0178 108.841 31.7837 107.827 31.2357C107.781 31.2105 107.746 31.1685 107.729 31.1182C107.712 31.0679 107.716 31.0131 107.738 30.9652L108.708 28.8364C108.72 28.8102 108.737 28.7866 108.758 28.7672C108.78 28.7478 108.805 28.7329 108.832 28.7235C108.859 28.7147 108.888 28.7116 108.917 28.7143C108.946 28.7171 108.974 28.7256 108.999 28.7394C109.542 29.0363 110.073 29.1863 110.578 29.1863C111.201 29.1863 111.658 28.9817 112.123 27.9502L108.03 18.1356H105.357V27.9532C105.357 28.069 105.263 28.1631 105.148 28.1631H102.286C102.258 28.1631 102.231 28.1577 102.205 28.1471C102.18 28.1365 102.157 28.1211 102.137 28.1016C102.118 28.0821 102.103 28.0589 102.092 28.0334C102.082 28.008 102.076 27.9807 102.076 27.9532V18.1356H100.701C100.646 18.1351 100.593 18.1129 100.553 18.0736C100.514 18.0343 100.492 17.9812 100.491 17.9256V15.4541C100.491 15.3382 100.586 15.2441 100.701 15.2441H102.076V14.6384C102.076 11.824 103.473 10.335 106.117 10.335C107.203 10.335 107.928 10.5085 108.495 10.6761C108.585 10.7038 108.644 10.7855 108.644 10.8772V13.2883C108.645 13.3216 108.637 13.3545 108.622 13.3843C108.607 13.4142 108.585 13.4399 108.558 13.4595C108.531 13.4791 108.5 13.492 108.467 13.4969C108.434 13.5019 108.401 13.4989 108.369 13.4882C107.832 13.3094 107.353 13.1906 106.757 13.1906C105.757 13.1906 105.31 13.7099 105.31 14.8736V15.2688H110.198H110.198ZM98.9478 15.2565C99.063 15.2565 99.1571 15.3506 99.1571 15.4658V27.9526C99.1571 28.0678 99.063 28.1619 98.9472 28.1619H96.0852C96.0296 28.1619 95.9763 28.1399 95.9369 28.1006C95.8976 28.0614 95.8754 28.0081 95.8752 27.9526V15.4658C95.8752 15.3506 95.9693 15.2565 96.0846 15.2565H98.9466H98.9478ZM97.5312 9.57116C98.0755 9.57116 98.5975 9.78739 98.9824 10.1723C99.3673 10.5572 99.5835 11.0792 99.5835 11.6235C99.5835 12.1678 99.3673 12.6898 98.9824 13.0747C98.5975 13.4596 98.0755 13.6758 97.5312 13.6758C96.9869 13.6758 96.4649 13.4596 96.08 13.0747C95.6951 12.6898 95.4789 12.1678 95.4789 11.6235C95.4789 11.0792 95.6951 10.5572 96.08 10.1723C96.4649 9.78739 96.9869 9.57116 97.5312 9.57116ZM122.605 19.2705C122.34 19.2715 122.077 19.2201 121.833 19.1193C121.588 19.0184 121.365 18.8701 121.178 18.6829C120.991 18.4956 120.843 18.2732 120.742 18.0284C120.641 17.7836 120.59 17.5212 120.591 17.2564C120.591 16.9906 120.643 16.7273 120.745 16.4817C120.846 16.2361 120.996 16.013 121.184 15.825C121.372 15.637 121.595 15.488 121.84 15.3863C122.086 15.2846 122.349 15.2323 122.615 15.2324C122.88 15.2312 123.142 15.2825 123.387 15.3832C123.632 15.4839 123.854 15.6321 124.042 15.8193C124.229 16.0064 124.377 16.2287 124.478 16.4735C124.579 16.7182 124.63 16.9805 124.629 17.2453C124.629 17.5112 124.577 17.7746 124.475 18.0203C124.374 18.2661 124.225 18.4894 124.037 18.6775C123.849 18.8656 123.625 19.0149 123.38 19.1167C123.134 19.2186 122.871 19.271 122.605 19.2711V19.2705ZM122.615 15.4329C121.584 15.4329 120.803 16.2532 120.803 17.257C120.803 18.2608 121.578 19.07 122.605 19.07C123.636 19.07 124.418 18.2503 124.418 17.2459C124.418 16.2421 123.641 15.4329 122.615 15.4329ZM123.062 17.4529L123.631 18.2503H123.151L122.639 17.5187H122.198V18.2503H121.795V16.1362H122.739C123.229 16.1362 123.553 16.3879 123.553 16.8107C123.553 17.1576 123.353 17.3694 123.062 17.4517L123.062 17.4529ZM122.72 16.499H122.197V17.1671H122.72C122.983 17.1671 123.138 17.0389 123.138 16.8319C123.138 16.6143 122.983 16.4984 122.72 16.4984V16.499ZM19.6957 1.05731C9.47181 1.05731 1.18378 9.46061 1.18378 19.6851C1.18319 29.2922 8.49976 37.0474 17.8651 38.2235H21.5263C30.8917 37.0474 38.2083 29.2922 38.2083 19.6845C38.2083 9.46061 29.9196 1.05731 19.6963 1.05731H19.6957ZM28.1855 27.7585C28.1066 27.888 28.003 28.0007 27.8805 28.0901C27.758 28.1795 27.6191 28.2438 27.4717 28.2794C27.3244 28.3151 27.1714 28.3212 27.0216 28.2976C26.8718 28.274 26.7282 28.2211 26.5989 28.1419C22.2514 25.4851 16.7802 24.8853 10.3363 26.3572C10.1886 26.3911 10.0357 26.3956 9.88629 26.3704C9.73689 26.3452 9.59393 26.2908 9.46557 26.2103C9.33722 26.1298 9.226 26.0248 9.13828 25.9012C9.05055 25.7777 8.98804 25.6381 8.95433 25.4904C8.9204 25.3426 8.91594 25.1897 8.94122 25.0402C8.9665 24.8907 9.02101 24.7477 9.10163 24.6194C9.18226 24.491 9.28741 24.3798 9.41107 24.2921C9.53474 24.2045 9.67448 24.142 9.82229 24.1085C16.8742 22.4972 22.923 23.1911 27.8026 26.1725C28.0635 26.3324 28.2503 26.5893 28.322 26.8867C28.3936 27.1842 28.3443 27.4979 28.1849 27.7591L28.1855 27.7585ZM30.4506 22.7177C30.2504 23.0438 29.9288 23.277 29.5567 23.3661C29.1845 23.4552 28.7922 23.3929 28.466 23.1929C23.491 20.135 15.9051 19.2488 10.0187 21.0359C9.65235 21.1464 9.25712 21.1073 8.91953 20.9271C8.58194 20.7469 8.32951 20.4403 8.21749 20.0744C7.98815 19.3099 8.41743 18.5061 9.18014 18.275C15.9045 16.2344 24.2626 17.2223 29.9767 20.733C30.3026 20.9334 30.5357 21.255 30.6247 21.6271C30.7137 21.9993 30.6513 22.3915 30.4512 22.7177H30.4506ZM30.6459 17.4687C24.6783 13.9251 14.8355 13.5993 9.13898 15.3282C8.69948 15.4614 8.22507 15.4145 7.82011 15.198C7.41516 14.9814 7.11283 14.6128 6.97964 14.1733C6.84645 13.7338 6.8933 13.2594 7.1099 12.8544C7.32649 12.4495 7.69508 12.1471 8.13458 12.0139C14.6737 10.0293 25.5445 10.4127 32.4142 14.4896C32.6098 14.6056 32.7806 14.759 32.9169 14.9411C33.0532 15.1231 33.1523 15.3302 33.2086 15.5506C33.2648 15.7709 33.2771 16.0002 33.2447 16.2253C33.2124 16.4504 33.1359 16.6669 33.0199 16.8624C32.9039 17.0582 32.7505 17.2292 32.5684 17.3656C32.3864 17.502 32.1792 17.6011 31.9587 17.6574C31.7383 17.7137 31.5089 17.7259 31.2838 17.6934C31.0586 17.6609 30.842 17.5844 30.6465 17.4681L30.6459 17.4687Z" fill="#6B7280"/>
</svg>
