<svg width="132" height="28" viewBox="0 0 132 28" fill="none" xmlns="http://www.w3.org/2000/svg">
<g clip-path="url(#clip0_1_2595)">
<path fill-rule="evenodd" clip-rule="evenodd" d="M20.7493 0.664972V15.8459C20.7493 20.9152 18.5053 23.0204 13.242 23.0204C7.97831 23.0204 5.73431 20.9152 5.73431 15.8459V0H0.664972C0.221959 0 0 0.221959 0 0.664972V16.095C0 24.5723 5.40205 27.5365 13.242 27.5365C21.0816 27.5365 26.4836 24.5723 26.4836 16.095V0H21.4138C20.9708 0 20.7493 0.221959 20.7493 0.664972Z" fill="#6B7280"/>
<path fill-rule="evenodd" clip-rule="evenodd" d="M94.2395 4.40482C94.6549 4.40482 94.8488 4.26649 94.9872 3.96136L96.4559 0.33226C96.5391 0.111206 96.4559 0 96.2339 0H75.8173C73.9056 0 73.1859 0.581794 73.1859 1.88371V25.4584C73.1859 26.5668 73.7392 27.0654 75.208 27.0654H94.2395C94.6549 27.0654 94.8488 26.9266 94.9872 26.6224L96.4559 22.9929C96.5391 22.7714 96.4559 22.6606 96.2339 22.6606H78.8095V17.8679C78.8095 16.2057 79.7235 15.4576 82.1886 15.4576H89.7519C90.1674 15.4576 90.3608 15.3197 90.4996 15.015L91.9127 11.5242C91.9955 11.3023 91.9127 11.192 91.6908 11.192H78.8095V4.40482H94.2395Z" fill="#6B7280"/>
<path fill-rule="evenodd" clip-rule="evenodd" d="M52.979 22.7162H42.9755V17.7572C42.9755 16.095 43.8896 15.3473 46.3555 15.3473H52.979C56.1646 15.3473 57.0511 16.566 57.0511 19.0595C57.0511 21.5526 56.1646 22.7162 52.979 22.7162ZM42.9755 4.34922H51.9262C54.9179 4.34922 55.7492 5.47619 55.7492 7.81196C55.7492 10.1482 54.9179 11.2752 51.9262 11.2752H42.9755V4.34922ZM58.2979 12.7986C60.5139 11.635 61.4279 9.44659 61.4279 6.87033C61.4279 0.886479 56.5525 0 51.5107 0H39.9865C38.0748 0 37.3551 0.581794 37.3551 1.88371V25.4584C37.3551 26.5668 37.9089 27.0654 39.3771 27.0654H53.5608C58.9073 27.0654 62.7298 24.9878 62.7298 19.5857C62.7298 16.3445 61.3447 13.6019 58.2979 12.7986Z" fill="#6B7280"/>
<path fill-rule="evenodd" clip-rule="evenodd" d="M121.262 12.549H111.843V4.34967H121.262C124.78 4.34967 125.555 5.70674 125.555 8.44936C125.555 11.2195 124.78 12.549 121.262 12.549ZM131.844 26.5944L125.777 16.1781C128.797 15.4029 131.235 13.4084 131.235 8.3386C131.235 1.77341 127.162 0 120.43 0H108.851C106.94 0 106.219 0.581794 106.219 1.88371V26.4005C106.219 26.8435 106.441 27.0654 106.884 27.0654H111.843V19.1703C111.843 17.5081 112.757 16.7599 115.223 16.7599H120.209L125.694 26.6224C125.86 26.8991 126.026 27.0654 126.442 27.0654H131.595C131.955 27.0654 131.955 26.7603 131.844 26.5944Z" fill="#6B7280"/>
</g>
<defs>
<clipPath id="clip0_1_2595">
<rect width="132" height="27.5753" fill="white"/>
</clipPath>
</defs>
</svg>
